<svg width="304" height="304" viewBox="0 0 304 304" fill="none" xmlns="http://www.w3.org/2000/svg">
<g clip-path="url(#clip0_1_4)">
<g filter="url(#filter0_b_1_4)">
<rect width="304" height="304" rx="24" fill="url(#paint0_linear_1_4)"/>
</g>
<path d="M51.1413 168.116V154.82L114.295 125.644V142.033L69.4226 161.283L69.9304 160.406V162.53L69.4226 161.653L114.295 180.903V197.292L51.1413 168.116ZM173.651 100.023L143.182 213.219H128.548L159.017 100.023H173.651ZM251.023 168.116L187.87 197.292V180.903L232.742 161.653L232.234 162.53V160.406L232.742 161.283L187.87 142.033V125.644L251.023 154.82V168.116Z" fill="url(#paint1_linear_1_4)"/>
</g>
<defs>
<filter id="filter0_b_1_4" x="-5" y="-5" width="314" height="314" filterUnits="userSpaceOnUse" color-interpolation-filters="sRGB">
<feFlood flood-opacity="0" result="BackgroundImageFix"/>
<feGaussianBlur in="BackgroundImageFix" stdDeviation="2.5"/>
<feComposite in2="SourceAlpha" operator="in" result="effect1_backgroundBlur_1_4"/>
<feBlend mode="normal" in="SourceGraphic" in2="effect1_backgroundBlur_1_4" result="shape"/>
</filter>
<linearGradient id="paint0_linear_1_4" x1="45" y1="91.5" x2="181.5" y2="259.5" gradientUnits="userSpaceOnUse">
<stop stop-color="#212121"/>
<stop offset="1"/>
</linearGradient>
<linearGradient id="paint1_linear_1_4" x1="60.5426" y1="136.493" x2="148.02" y2="233.149" gradientUnits="userSpaceOnUse">
<stop stop-color="#9BFE17"/>
<stop offset="1" stop-color="#08F35B"/>
</linearGradient>
<clipPath id="clip0_1_4">
<rect width="304" height="304" fill="white"/>
</clipPath>
</defs>
</svg>
