<svg xmlns="http://www.w3.org/2000/svg" xmlns:xlink="http://www.w3.org/1999/xlink" width="30px" height="30px" viewBox="0 0 30 30" version="1.1">
<g id="surface1">
<path style=" stroke:none;fill-rule:nonzero;fill:#fcf8f2;fill-opacity:1;" d="M 20.5 20.105469 C 17.578125 23.03125 12.820312 23.03125 9.894531 20.105469 C 6.96875 17.179688 6.96875 12.421875 9.894531 9.5 C 10.667969 8.726562 11.609375 8.136719 12.695312 7.753906 C 13.039062 7.632812 13.417969 7.71875 13.671875 7.976562 C 13.925781 8.230469 14.011719 8.609375 13.894531 8.949219 C 13.15625 11.023438 13.660156 13.265625 15.195312 14.804688 C 16.730469 16.339844 18.976562 16.839844 21.050781 16.109375 C 21.390625 15.988281 21.769531 16.074219 22.023438 16.328125 C 22.28125 16.582031 22.367188 16.964844 22.246094 17.304688 C 21.863281 18.390625 21.273438 19.332031 20.5 20.105469 Z M 11.21875 10.824219 C 9.027344 13.019531 9.027344 16.589844 11.21875 18.78125 C 13.5625 21.125 17.554688 20.914062 19.597656 18.300781 C 17.492188 18.433594 15.417969 17.671875 13.871094 16.128906 C 12.324219 14.585938 11.566406 12.511719 11.699219 10.402344 C 11.53125 10.535156 11.371094 10.675781 11.21875 10.824219 Z M 11.21875 10.824219 "/>
</g>
</svg>