<svg xmlns="http://www.w3.org/2000/svg" xmlns:xlink="http://www.w3.org/1999/xlink" width="30px" height="30px" viewBox="0 0 30 30" version="1.1">
<g id="surface1">
<path style=" stroke:none;fill-rule:nonzero;fill:#592c8f;fill-opacity:1;" d="M 15 8.4375 C 11.382812 8.4375 8.4375 11.382812 8.4375 15 C 8.4375 18.617188 11.382812 21.5625 15 21.5625 C 18.617188 21.5625 21.5625 18.617188 21.5625 15 C 21.5625 11.382812 18.617188 8.4375 15 8.4375 Z M 15 19.6875 C 12.410156 19.6875 10.3125 17.589844 10.3125 15 C 10.3125 12.410156 12.410156 10.3125 15 10.3125 C 17.589844 10.3125 19.6875 12.410156 19.6875 15 C 19.6875 17.589844 17.589844 19.6875 15 19.6875 Z M 15 6.5625 C 15.515625 6.5625 15.9375 6.140625 15.9375 5.625 L 15.9375 3.75 C 15.9375 3.234375 15.515625 2.8125 15 2.8125 C 14.484375 2.8125 14.0625 3.234375 14.0625 3.75 L 14.0625 5.625 C 14.0625 6.140625 14.484375 6.5625 15 6.5625 Z M 15 23.4375 C 14.484375 23.4375 14.0625 23.859375 14.0625 24.375 L 14.0625 26.25 C 14.0625 26.765625 14.484375 27.1875 15 27.1875 C 15.515625 27.1875 15.9375 26.765625 15.9375 26.25 L 15.9375 24.375 C 15.9375 23.859375 15.515625 23.4375 15 23.4375 Z M 22.292969 9.035156 L 23.617188 7.707031 C 23.984375 7.339844 23.984375 6.75 23.617188 6.382812 C 23.25 6.015625 22.65625 6.015625 22.292969 6.382812 L 20.964844 7.707031 C 20.597656 8.074219 20.597656 8.667969 20.964844 9.035156 C 21.332031 9.398438 21.925781 9.398438 22.292969 9.035156 Z M 7.707031 20.96875 L 6.382812 22.292969 C 6.015625 22.660156 6.015625 23.25 6.382812 23.617188 C 6.75 23.984375 7.34375 23.984375 7.707031 23.617188 L 9.035156 22.292969 C 9.402344 21.925781 9.402344 21.332031 9.035156 20.96875 C 8.667969 20.601562 8.074219 20.597656 7.707031 20.96875 Z M 6.5625 15 C 6.5625 14.484375 6.140625 14.0625 5.625 14.0625 L 3.75 14.0625 C 3.234375 14.0625 2.8125 14.484375 2.8125 15 C 2.8125 15.515625 3.234375 15.9375 3.75 15.9375 L 5.625 15.9375 C 6.140625 15.9375 6.5625 15.515625 6.5625 15 Z M 26.25 14.0625 L 24.375 14.0625 C 23.859375 14.0625 23.4375 14.484375 23.4375 15 C 23.4375 15.515625 23.859375 15.9375 24.375 15.9375 L 26.25 15.9375 C 26.765625 15.9375 27.1875 15.515625 27.1875 15 C 27.1875 14.484375 26.765625 14.0625 26.25 14.0625 Z M 7.707031 9.035156 C 8.074219 9.398438 8.667969 9.398438 9.03125 9.035156 C 9.398438 8.667969 9.398438 8.074219 9.03125 7.707031 L 7.707031 6.382812 C 7.339844 6.015625 6.75 6.015625 6.382812 6.382812 C 6.015625 6.75 6.015625 7.339844 6.382812 7.707031 Z M 22.292969 20.964844 C 21.925781 20.597656 21.332031 20.597656 20.96875 20.964844 C 20.601562 21.332031 20.597656 21.925781 20.96875 22.292969 L 22.292969 23.617188 C 22.660156 23.984375 23.25 23.984375 23.617188 23.617188 C 23.984375 23.25 23.984375 22.65625 23.617188 22.292969 Z M 22.292969 20.964844 "/>
</g>
</svg>